<svg width="203" height="93" viewBox="0 0 203 93" fill="none" xmlns="http://www.w3.org/2000/svg">
<path d="M39.7863 34.9815C39.9363 34.9815 40.0113 35.0936 40.0113 35.3179C40.0113 35.5421 39.9363 35.6542 39.7863 35.6542C39.0734 35.6542 37.9667 35.6169 36.466 35.5421C34.9654 35.4674 33.8586 35.43 33.1458 35.43C32.283 35.43 31.2137 35.4674 29.9382 35.5421C28.7376 35.6169 27.7997 35.6542 27.1244 35.6542C26.9744 35.6542 26.8993 35.5421 26.8993 35.3179C26.8993 35.0936 26.9744 34.9815 27.1244 34.9815C28.475 34.9815 29.4317 34.8694 29.9944 34.6452C30.5947 34.3835 30.8948 33.9351 30.8948 33.2997C30.8948 32.7391 30.6322 31.8982 30.107 30.777L25.2674 20.6862H11.8177L8.49749 28.3664C8.00977 29.4876 7.76592 30.5154 7.76592 31.4497C7.76592 33.8043 9.58547 34.9815 13.2246 34.9815C13.4122 34.9815 13.5059 35.0936 13.5059 35.3179C13.5059 35.5421 13.4122 35.6542 13.2246 35.6542C12.5493 35.6542 11.5738 35.6169 10.2983 35.5421C8.87265 35.4674 7.63461 35.43 6.58415 35.43C5.64623 35.43 4.50198 35.4674 3.15139 35.5421C2.02589 35.6169 1.06922 35.6542 0.281374 35.6542C0.0937912 35.6542 0 35.5421 0 35.3179C0 35.0936 0.0937912 34.9815 0.281374 34.9815C1.33184 34.9815 2.21347 34.7947 2.92629 34.4209C3.67662 34.0098 4.38943 33.2997 5.06473 32.2906C5.74003 31.2816 6.49036 29.8053 7.31572 27.8619L19.1897 0.168182C19.2647 0.0560605 19.4148 0 19.6399 0C19.865 0 19.9963 0.0560605 20.0338 0.168182L33.4272 27.974C34.7028 30.7023 35.7907 32.5522 36.6911 33.524C37.5915 34.4957 38.6232 34.9815 39.7863 34.9815ZM12.3242 19.5089H24.7046L18.1767 5.94237L12.3242 19.5089Z" fill="#47060E"/>
<path d="M77.9981 34.9914C78.109 34.9914 78.1644 35.1019 78.1644 35.3228C78.1644 35.5438 78.109 35.6542 77.9981 35.6542H70.4016C69.5144 35.6542 67.8324 34.1628 65.3557 31.18C62.9159 28.1603 59.9217 23.9623 56.3729 18.5858C55.3748 18.7699 54.4507 18.862 53.6005 18.862C53.4156 18.862 52.5469 18.8067 50.9943 18.6963V31.18C50.9943 32.3216 51.1052 33.1501 51.327 33.6657C51.5488 34.1812 51.9739 34.5311 52.6024 34.7152C53.2308 34.8993 54.2289 34.9914 55.5966 34.9914C55.7075 34.9914 55.763 35.1019 55.763 35.3228C55.763 35.5438 55.7075 35.6542 55.5966 35.6542C54.4137 35.6542 53.508 35.6358 52.8796 35.599L48.9427 35.5438L45.1167 35.599C44.4144 35.6358 43.4717 35.6542 42.2888 35.6542C42.2149 35.6542 42.1779 35.5438 42.1779 35.3228C42.1779 35.1019 42.2149 34.9914 42.2888 34.9914C43.6566 34.9914 44.6547 34.8993 45.2831 34.7152C45.9115 34.5311 46.3366 34.1812 46.5584 33.6657C46.8172 33.1133 46.9466 32.2847 46.9466 31.18V5.60494C46.9466 4.50019 46.8357 3.69003 46.6139 3.17448C46.3921 2.65893 45.967 2.30909 45.3385 2.12496C44.7101 1.90401 43.7305 1.79354 42.3997 1.79354C42.2888 1.79354 42.2334 1.68306 42.2334 1.46211C42.2334 1.24116 42.2888 1.13069 42.3997 1.13069L45.1167 1.18593C46.6693 1.25957 47.9446 1.2964 48.9427 1.2964C49.719 1.2964 50.4583 1.27799 51.1607 1.24116C51.8631 1.20434 52.473 1.16751 52.9905 1.13069C54.3583 1.02021 55.6336 0.964974 56.8165 0.964974C59.7738 0.964974 62.0657 1.62783 63.6922 2.95353C65.3557 4.24241 66.1874 5.9916 66.1874 8.20111C66.1874 10.1897 65.596 11.9941 64.413 13.6144C63.2671 15.2347 61.733 16.5052 59.8108 17.4258C62.9159 21.8816 65.5035 25.3616 67.5736 27.8657C69.6807 30.3698 71.5475 32.1927 73.174 33.3343C74.8375 34.439 76.4455 34.9914 77.9981 34.9914ZM50.9943 17.3706C52.0294 17.481 53.1199 17.5363 54.2658 17.5363C57.0383 17.5363 59.016 16.9287 60.1989 15.7134C61.3818 14.4614 61.9733 12.5281 61.9733 9.91348C61.9733 7.0043 61.3633 4.94209 60.1435 3.72686C58.9236 2.4748 57.1677 1.84878 54.8758 1.84878C53.4341 1.84878 52.4175 2.12497 51.8261 2.67734C51.2716 3.1929 50.9943 4.20559 50.9943 5.71541V17.3706Z" fill="#47060E"/>
<path d="M95.1795 36.3171C91.7417 36.3171 88.6735 35.5254 85.975 33.9419C83.3134 32.3216 81.2433 30.1489 79.7647 27.4238C78.323 24.6619 77.6021 21.6607 77.6021 18.4201C77.6021 14.6271 78.5633 11.3865 80.4855 8.69825C82.4077 5.97319 84.866 3.9294 87.8603 2.56687C90.8915 1.20434 93.9781 0.523072 97.1203 0.523072C100.632 0.523072 103.719 1.35164 106.38 3.00877C109.042 4.62907 111.075 6.78334 112.48 9.47158C113.921 12.1598 114.642 15.0138 114.642 18.0334C114.642 21.3845 113.755 24.4594 111.981 27.2581C110.206 30.0568 107.822 32.2663 104.828 33.8866C101.87 35.5069 98.6544 36.3171 95.1795 36.3171ZM97.1203 35.1019C99.56 35.1019 101.741 34.4943 103.663 33.279C105.622 32.0638 107.157 30.2962 108.266 27.9762C109.411 25.6194 109.984 22.8207 109.984 19.5801C109.984 16.1553 109.356 13.0989 108.099 10.4106C106.879 7.72238 105.123 5.62335 102.832 4.11352C100.54 2.60369 97.8781 1.84878 94.8468 1.84878C90.8915 1.84878 87.8048 3.15607 85.5868 5.77065C83.3689 8.34841 82.2599 11.9204 82.2599 16.4868C82.2599 19.9483 82.8883 23.0969 84.1451 25.9324C85.402 28.7679 87.1579 31.0143 89.4128 32.6714C91.6677 34.2917 94.2369 35.1019 97.1203 35.1019Z" fill="#47060E"/>
<path d="M162.585 34.9914C162.696 34.9914 162.751 35.1019 162.751 35.3228C162.751 35.5438 162.696 35.6542 162.585 35.6542C161.402 35.6542 160.459 35.6358 159.757 35.599L155.931 35.5438L152.216 35.599C151.624 35.6358 150.793 35.6542 149.721 35.6542C149.647 35.6542 149.61 35.5438 149.61 35.3228C149.61 35.1019 149.647 34.9914 149.721 34.9914C150.978 34.9914 151.902 34.8993 152.493 34.7152C153.085 34.4943 153.473 34.126 153.658 33.6105C153.879 33.0949 153.953 32.2847 153.879 31.18L152.826 6.59922L140.405 35.2676C140.331 35.4149 140.183 35.4885 139.962 35.4885C139.777 35.4885 139.61 35.4149 139.463 35.2676L125.767 6.70969L125.323 29.4676C125.286 31.4194 125.619 32.8371 126.321 33.7209C127.06 34.5679 128.28 34.9914 129.981 34.9914C130.055 34.9914 130.092 35.1019 130.092 35.3228C130.092 35.5438 130.055 35.6542 129.981 35.6542C128.946 35.6542 128.151 35.6358 127.596 35.599L124.602 35.5438L121.608 35.599C121.09 35.6358 120.351 35.6542 119.39 35.6542C119.279 35.6542 119.224 35.5438 119.224 35.3228C119.224 35.1019 119.279 34.9914 119.39 34.9914C120.906 34.9914 122.033 34.5495 122.772 33.6657C123.512 32.7819 123.9 31.3825 123.937 29.4676L124.436 4.33447C123.327 2.64052 121.774 1.79354 119.778 1.79354C119.667 1.79354 119.612 1.68306 119.612 1.46211C119.612 1.24116 119.667 1.13069 119.778 1.13069L121.941 1.18593C122.347 1.22275 122.883 1.24116 123.549 1.24116C124.288 1.24116 124.898 1.22275 125.379 1.18593C125.896 1.1491 126.303 1.13069 126.598 1.13069C127.079 1.13069 127.467 1.2964 127.763 1.62782C128.059 1.95925 128.521 2.75099 129.149 4.00305L141.514 29.4124L153.269 2.51163C153.676 1.591 154.231 1.13069 154.933 1.13069C155.118 1.13069 155.395 1.1491 155.765 1.18593C156.134 1.22275 156.615 1.24116 157.206 1.24116L159.979 1.18593C160.385 1.1491 161.014 1.13069 161.864 1.13069C161.938 1.13069 161.975 1.24116 161.975 1.46211C161.975 1.68306 161.938 1.79354 161.864 1.79354C160.016 1.79354 158.685 2.08814 157.872 2.67734C157.095 3.22972 156.726 4.24241 156.763 5.71541L157.927 31.18C158.001 32.3216 158.149 33.1501 158.371 33.6657C158.593 34.1812 158.999 34.5311 159.591 34.7152C160.219 34.8993 161.217 34.9914 162.585 34.9914Z" fill="#47060E"/>
<path d="M202.778 34.9914C202.926 34.9914 203 35.1019 203 35.3228C203 35.5438 202.926 35.6542 202.778 35.6542C202.076 35.6542 200.985 35.6174 199.507 35.5438C198.028 35.4701 196.938 35.4333 196.235 35.4333C195.385 35.4333 194.331 35.4701 193.075 35.5438C191.892 35.6174 190.968 35.6542 190.302 35.6542C190.154 35.6542 190.08 35.5438 190.08 35.3228C190.08 35.1019 190.154 34.9914 190.302 34.9914C191.633 34.9914 192.576 34.8809 193.13 34.66C193.722 34.4022 194.017 33.9603 194.017 33.3343C194.017 32.7819 193.758 31.9533 193.241 30.8486L188.472 20.9058H175.22L171.948 28.4733C171.468 29.5781 171.228 30.5908 171.228 31.5114C171.228 33.8314 173.02 34.9914 176.606 34.9914C176.791 34.9914 176.883 35.1019 176.883 35.3228C176.883 35.5438 176.791 35.6542 176.606 35.6542C175.941 35.6542 174.98 35.6174 173.723 35.5438C172.318 35.4701 171.098 35.4333 170.063 35.4333C169.139 35.4333 168.012 35.4701 166.681 35.5438C165.572 35.6174 164.629 35.6542 163.853 35.6542C163.668 35.6542 163.576 35.5438 163.576 35.3228C163.576 35.1019 163.668 34.9914 163.853 34.9914C164.888 34.9914 165.757 34.8073 166.459 34.439C167.198 34.0339 167.901 33.3343 168.566 32.34C169.231 31.3457 169.971 29.8911 170.784 27.9762L182.484 0.688786C182.558 0.57831 182.706 0.523072 182.927 0.523072C183.149 0.523072 183.279 0.57831 183.316 0.688786L196.512 28.0867C197.769 30.7749 198.841 32.5978 199.728 33.5552C200.616 34.5127 201.632 34.9914 202.778 34.9914ZM175.719 19.7458H187.918L181.486 6.37827L175.719 19.7458Z" fill="#47060E"/>
<path d="M28.9886 64.4223C28.9886 65.1289 29.0773 65.6479 29.2547 65.9791C29.432 66.2883 29.7867 66.5091 30.3187 66.6416C30.8507 66.7741 31.682 66.8404 32.8126 66.8404C32.8791 66.8404 32.9123 66.9066 32.9123 67.0391C32.9123 67.1716 32.8791 67.2379 32.8126 67.2379C31.9037 67.2379 31.1943 67.2268 30.6845 67.2048L27.7916 67.1716L25.5305 67.2048C25.1314 67.2268 24.5662 67.2379 23.8346 67.2379C23.7681 67.2379 23.7349 67.1716 23.7349 67.0391C23.7349 66.9066 23.7681 66.8404 23.8346 66.8404C24.6327 66.8404 25.2201 66.7852 25.597 66.6748C25.9738 66.5643 26.2288 66.3546 26.3618 66.0454C26.4948 65.7141 26.5613 65.2173 26.5613 64.5548V49.2179C26.5613 48.5554 26.4948 48.0696 26.3618 47.7604C26.2288 47.4513 25.9738 47.2415 25.597 47.1311C25.2201 46.9986 24.6327 46.9323 23.8346 46.9323C23.7681 46.9323 23.7349 46.8661 23.7349 46.7336C23.7349 46.6011 23.7681 46.5348 23.8346 46.5348L25.5305 46.5679C26.4615 46.6121 27.2041 46.6342 27.7583 46.6342C28.2904 46.6342 28.9221 46.6011 29.6537 46.5348C29.9197 46.5348 30.3298 46.5238 30.884 46.5017C31.4604 46.4575 31.9591 46.4354 32.3803 46.4354C34.4419 46.4354 36.0934 46.8992 37.3348 47.8267C38.5984 48.7321 39.2302 50.1123 39.2302 51.9673C39.2302 53.4027 38.8644 54.6173 38.1329 55.611C37.4235 56.6048 36.5035 57.3446 35.373 57.8304C34.2646 58.3162 33.1119 58.5592 31.9148 58.5592C31.2719 58.5592 30.7288 58.5039 30.2855 58.3935C30.2411 58.3935 30.219 58.3383 30.219 58.2279C30.219 58.1617 30.23 58.0954 30.2522 58.0292C30.2965 57.9629 30.3409 57.9408 30.3852 57.9629C30.7177 58.0512 31.1057 58.0954 31.549 58.0954C32.9234 58.0954 34.0872 57.6206 35.0405 56.671C35.9937 55.7215 36.4703 54.3523 36.4703 52.5635C36.4703 50.819 36.0158 49.4498 35.107 48.4561C34.1981 47.4623 33.001 46.9654 31.5158 46.9654C30.7842 46.9654 30.2522 47.0206 29.9197 47.1311C29.5872 47.2194 29.3433 47.4292 29.1882 47.7604C29.0551 48.0696 28.9886 48.5775 28.9886 49.2842V64.4223Z" fill="#47060E"/>
<path d="M56.486 62.2691C56.486 62.2029 56.5525 62.1808 56.6855 62.2029C56.8185 62.2029 56.885 62.236 56.885 62.3023C56.6855 63.7377 56.5858 65.2173 56.5858 66.741C56.5858 66.9177 56.5414 67.0502 56.4528 67.1385C56.3862 67.2048 56.2532 67.2379 56.0537 67.2379H41.9883C41.9439 67.2379 41.9217 67.1716 41.9217 67.0391C41.9217 66.9066 41.9439 66.8404 41.9883 66.8404C42.8085 66.8404 43.407 66.7852 43.7838 66.6748C44.1607 66.5643 44.4156 66.3546 44.5486 66.0454C44.6816 65.7141 44.7481 65.2173 44.7481 64.5548V49.2179C44.7481 48.5554 44.6816 48.0696 44.5486 47.7604C44.4156 47.4513 44.1607 47.2415 43.7838 47.1311C43.407 46.9986 42.8085 46.9323 41.9883 46.9323C41.9439 46.9323 41.9217 46.8661 41.9217 46.7336C41.9217 46.6011 41.9439 46.5348 41.9883 46.5348H55.4884C55.688 46.5348 55.7877 46.6342 55.7877 46.8329L55.8542 50.9736C55.8542 51.0398 55.7877 51.0729 55.6547 51.0729C55.5439 51.0729 55.4884 51.0398 55.4884 50.9736C55.3554 49.7811 54.9453 48.8646 54.2581 48.2242C53.5709 47.5838 52.6731 47.2636 51.5647 47.2636H49.7359C48.694 47.2636 48.0068 47.4071 47.6743 47.6942C47.3418 47.9813 47.1755 48.5334 47.1755 49.3504V56.1079H50.9995C52.1079 56.1079 52.9059 55.9202 53.3936 55.5448C53.9035 55.1694 54.1584 54.5621 54.1584 53.7229C54.1584 53.6788 54.2249 53.6567 54.3579 53.6567C54.4909 53.6567 54.5574 53.6788 54.5574 53.7229L54.5242 56.4723C54.5242 57.1127 54.5352 57.5985 54.5574 57.9298L54.5907 59.586C54.5907 59.6302 54.5241 59.6523 54.3911 59.6523C54.2581 59.6523 54.1916 59.6302 54.1916 59.586C54.1916 58.6144 53.9367 57.9187 53.4268 57.4992C52.917 57.0575 52.0857 56.8367 50.933 56.8367H47.1755V64.4223C47.1755 64.9964 47.242 65.4271 47.375 65.7141C47.508 66.0012 47.7408 66.211 48.0733 66.3435C48.4058 66.4539 48.9157 66.5091 49.6029 66.5091H51.9638C53.1387 66.5091 54.114 66.1448 54.8899 65.416C55.6658 64.6652 56.1978 63.6162 56.486 62.2691Z" fill="#47060E"/>
<path d="M81.3596 66.8404C81.4261 66.8404 81.4593 66.9066 81.4593 67.0391C81.4593 67.1716 81.4261 67.2379 81.3596 67.2379H76.8041C76.2721 67.2379 75.2634 66.3435 73.7782 64.5548C72.3151 62.7439 70.5195 60.2264 68.3914 57.0023C67.7929 57.1127 67.2387 57.1679 66.7288 57.1679C66.618 57.1679 66.097 57.1348 65.166 57.0685V64.5548C65.166 65.2393 65.2325 65.7362 65.3655 66.0454C65.4985 66.3546 65.7534 66.5643 66.1303 66.6748C66.5072 66.7852 67.1057 66.8404 67.9259 66.8404C67.9924 66.8404 68.0257 66.9066 68.0257 67.0391C68.0257 67.1716 67.9924 67.2379 67.9259 67.2379C67.2165 67.2379 66.6734 67.2268 66.2966 67.2048L63.9357 67.1716L61.6413 67.2048C61.2201 67.2268 60.6548 67.2379 59.9455 67.2379C59.9011 67.2379 59.879 67.1716 59.879 67.0391C59.879 66.9066 59.9011 66.8404 59.9455 66.8404C60.7657 66.8404 61.3642 66.7852 61.7411 66.6748C62.1179 66.5643 62.3729 66.3546 62.5059 66.0454C62.661 65.7141 62.7386 65.2173 62.7386 64.5548V49.2179C62.7386 48.5554 62.6721 48.0696 62.5391 47.7604C62.4061 47.4513 62.1512 47.2415 61.7743 47.1311C61.3975 46.9986 60.81 46.9323 60.012 46.9323C59.9455 46.9323 59.9122 46.8661 59.9122 46.7336C59.9122 46.6011 59.9455 46.5348 60.012 46.5348L61.6413 46.5679C62.5724 46.6121 63.3372 46.6342 63.9357 46.6342C64.4012 46.6342 64.8446 46.6231 65.2658 46.6011C65.6869 46.579 66.0527 46.5569 66.3631 46.5348C67.1833 46.4686 67.9481 46.4354 68.6574 46.4354C70.4308 46.4354 71.8053 46.8329 72.7806 47.6279C73.7782 48.4009 74.277 49.4498 74.277 50.7748C74.277 51.9673 73.9223 53.0494 73.2129 54.021C72.5257 54.9927 71.6058 55.7546 70.453 56.3067C72.3151 58.9787 73.8669 61.0656 75.1083 62.5673C76.3718 64.0689 77.4913 65.1621 78.4667 65.8466C79.4642 66.5091 80.4285 66.8404 81.3596 66.8404ZM65.166 56.2735C65.7867 56.3398 66.4407 56.3729 67.1279 56.3729C68.7904 56.3729 69.9764 56.0085 70.6858 55.2798C71.3952 54.529 71.7498 53.3696 71.7498 51.8017C71.7498 50.0571 71.3841 48.8204 70.6525 48.0917C69.921 47.3409 68.868 46.9654 67.4936 46.9654C66.6291 46.9654 66.0195 47.1311 65.6648 47.4623C65.3323 47.7715 65.166 48.3788 65.166 49.2842V56.2735Z" fill="#47060E"/>
<path d="M96.3473 50.9736C96.3473 51.0398 96.2808 51.0729 96.1478 51.0729C96.0369 51.0729 95.9815 51.0398 95.9815 50.9736C95.8485 49.7811 95.4384 48.8646 94.7512 48.2242C94.064 47.5838 93.1662 47.2636 92.0578 47.2636H90.229C89.2314 47.2636 88.5553 47.4071 88.2006 47.6942C87.8459 47.9592 87.6686 48.4781 87.6686 49.2511V56.5054H90.8608C92.0578 56.5054 92.9224 56.3177 93.4544 55.9423C93.9864 55.5448 94.2524 54.9375 94.2524 54.1204C94.2524 54.0763 94.3189 54.0542 94.4519 54.0542C94.5849 54.0542 94.6514 54.0763 94.6514 54.1204L94.6182 56.8698C94.6182 57.5102 94.6293 57.996 94.6514 58.3273L94.6847 59.9835C94.6847 60.0277 94.6182 60.0498 94.4852 60.0498C94.3522 60.0498 94.2857 60.0277 94.2857 59.9835C94.2857 59.0119 94.0086 58.3162 93.4544 57.8967C92.9002 57.455 92.0024 57.2342 90.761 57.2342H87.6686V64.4223C87.6686 65.1289 87.7573 65.6479 87.9346 65.9791C88.1341 66.2883 88.4999 66.5091 89.0319 66.6416C89.5861 66.7741 90.4506 66.8404 91.6255 66.8404C91.6699 66.8404 91.692 66.9066 91.692 67.0391C91.692 67.1716 91.6699 67.2379 91.6255 67.2379C90.7167 67.2379 90.0073 67.2268 89.4974 67.2048L86.405 67.1716L84.1439 67.2048C83.7227 67.2268 83.1463 67.2379 82.4148 67.2379C82.3483 67.2379 82.3151 67.1716 82.3151 67.0391C82.3151 66.9066 82.3483 66.8404 82.4148 66.8404C83.235 66.8404 83.8335 66.7852 84.2104 66.6748C84.6094 66.5643 84.8754 66.3546 85.0084 66.0454C85.1636 65.7141 85.2412 65.2173 85.2412 64.5548V49.2179C85.2412 48.5554 85.1747 48.0696 85.0417 47.7604C84.9087 47.4513 84.6538 47.2415 84.2769 47.1311C83.9001 46.9986 83.3015 46.9323 82.4813 46.9323C82.437 46.9323 82.4148 46.8661 82.4148 46.7336C82.4148 46.6011 82.437 46.5348 82.4813 46.5348H95.9815C96.181 46.5348 96.2808 46.6342 96.2808 46.8329L96.3473 50.9736Z" fill="#47060E"/>
<path d="M117.087 50.2779C117.087 49.1738 116.832 48.3456 116.322 47.7936C115.835 47.2194 115.114 46.9323 114.161 46.9323C114.094 46.9323 114.061 46.8661 114.061 46.7336C114.061 46.6011 114.094 46.5348 114.161 46.5348L115.624 46.5679C116.378 46.6121 117.009 46.6342 117.519 46.6342C117.94 46.6342 118.506 46.6121 119.215 46.5679L120.612 46.5348C120.656 46.5348 120.678 46.6011 120.678 46.7336C120.678 46.8661 120.656 46.9323 120.612 46.9323C119.725 46.9323 119.06 47.2194 118.617 47.7936C118.173 48.3456 117.952 49.1738 117.952 50.2779V59.6523C117.952 62.1477 117.231 64.1131 115.79 65.5485C114.349 66.9618 112.421 67.6685 110.004 67.6685C108.364 67.6685 106.923 67.3483 105.682 66.7079C104.462 66.0675 103.509 65.1621 102.822 63.9916C102.135 62.7991 101.791 61.4079 101.791 59.8179V49.2179C101.791 48.5554 101.725 48.0696 101.592 47.7604C101.459 47.4513 101.204 47.2415 100.827 47.1311C100.45 46.9986 99.8515 46.9323 99.0313 46.9323C98.987 46.9323 98.9648 46.8661 98.9648 46.7336C98.9648 46.6011 98.987 46.5348 99.0313 46.5348L100.694 46.5679C101.669 46.6121 102.434 46.6342 102.988 46.6342C103.609 46.6342 104.407 46.6121 105.382 46.5679L106.945 46.5348C107.012 46.5348 107.045 46.6011 107.045 46.7336C107.045 46.8661 107.012 46.9323 106.945 46.9323C106.147 46.9323 105.56 46.9986 105.183 47.1311C104.806 47.2636 104.551 47.4954 104.418 47.8267C104.285 48.1359 104.219 48.6217 104.219 49.2842V58.6585C104.219 61.2644 104.795 63.2519 105.948 64.621C107.1 65.9681 108.73 66.6416 110.836 66.6416C112.809 66.6416 114.338 66.0343 115.424 64.8198C116.533 63.5831 117.087 61.8716 117.087 59.6854V50.2779Z" fill="#47060E"/>
<path d="M148.451 66.8404C148.517 66.8404 148.55 66.9066 148.55 67.0391C148.55 67.1716 148.517 67.2379 148.451 67.2379C147.741 67.2379 147.176 67.2268 146.755 67.2048L144.46 67.1716L142.233 67.2048C141.878 67.2268 141.379 67.2379 140.736 67.2379C140.692 67.2379 140.67 67.1716 140.67 67.0391C140.67 66.9066 140.692 66.8404 140.736 66.8404C141.49 66.8404 142.044 66.7852 142.399 66.6748C142.754 66.5423 142.986 66.3214 143.097 66.0123C143.23 65.7031 143.274 65.2173 143.23 64.5548L142.598 49.8142L135.15 67.006C135.106 67.0943 135.017 67.1385 134.884 67.1385C134.773 67.1385 134.673 67.0943 134.585 67.006L126.372 49.8804L126.105 63.5279C126.083 64.6983 126.283 65.5485 126.704 66.0785C127.147 66.5864 127.879 66.8404 128.899 66.8404C128.943 66.8404 128.965 66.9066 128.965 67.0391C128.965 67.1716 128.943 67.2379 128.899 67.2379C128.278 67.2379 127.801 67.2268 127.469 67.2048L125.673 67.1716L123.878 67.2048C123.567 67.2268 123.124 67.2379 122.548 67.2379C122.481 67.2379 122.448 67.1716 122.448 67.0391C122.448 66.9066 122.481 66.8404 122.548 66.8404C123.456 66.8404 124.133 66.5754 124.576 66.0454C125.019 65.5154 125.252 64.6762 125.274 63.5279L125.573 48.4561C124.908 47.4402 123.977 46.9323 122.78 46.9323C122.714 46.9323 122.681 46.8661 122.681 46.7336C122.681 46.6011 122.714 46.5348 122.78 46.5348L124.077 46.5679C124.321 46.59 124.642 46.6011 125.041 46.6011C125.485 46.6011 125.851 46.59 126.139 46.5679C126.449 46.5459 126.693 46.5348 126.87 46.5348C127.158 46.5348 127.391 46.6342 127.569 46.8329C127.746 47.0317 128.023 47.5065 128.4 48.2573L135.815 63.4948L142.864 47.3629C143.108 46.8109 143.441 46.5348 143.862 46.5348C143.973 46.5348 144.139 46.5459 144.361 46.5679C144.582 46.59 144.871 46.6011 145.225 46.6011L146.888 46.5679C147.132 46.5459 147.509 46.5348 148.018 46.5348C148.063 46.5348 148.085 46.6011 148.085 46.7336C148.085 46.8661 148.063 46.9323 148.018 46.9323C146.91 46.9323 146.112 47.109 145.624 47.4623C145.159 47.7936 144.937 48.4009 144.959 49.2842L145.658 64.5548C145.702 65.2393 145.791 65.7362 145.924 66.0454C146.057 66.3546 146.3 66.5643 146.655 66.6748C147.032 66.7852 147.63 66.8404 148.451 66.8404Z" fill="#47060E"/>
<path d="M165.139 62.2691C165.139 62.2029 165.205 62.1808 165.338 62.2029C165.471 62.2029 165.538 62.236 165.538 62.3023C165.338 63.7377 165.238 65.2173 165.238 66.741C165.238 66.9177 165.194 67.0502 165.105 67.1385C165.039 67.2048 164.906 67.2379 164.706 67.2379H150.641C150.597 67.2379 150.574 67.1716 150.574 67.0391C150.574 66.9066 150.597 66.8404 150.641 66.8404C151.461 66.8404 152.06 66.7852 152.436 66.6748C152.813 66.5643 153.068 66.3546 153.201 66.0454C153.334 65.7141 153.401 65.2173 153.401 64.5548V49.2179C153.401 48.5554 153.334 48.0696 153.201 47.7604C153.068 47.4513 152.813 47.2415 152.436 47.1311C152.06 46.9986 151.461 46.9323 150.641 46.9323C150.597 46.9323 150.574 46.8661 150.574 46.7336C150.574 46.6011 150.597 46.5348 150.641 46.5348H164.141C164.341 46.5348 164.44 46.6342 164.44 46.8329L164.507 50.9736C164.507 51.0398 164.44 51.0729 164.307 51.0729C164.196 51.0729 164.141 51.0398 164.141 50.9736C164.008 49.7811 163.598 48.8646 162.911 48.2242C162.224 47.5838 161.326 47.2636 160.217 47.2636H158.389C157.347 47.2636 156.659 47.4071 156.327 47.6942C155.994 47.9813 155.828 48.5334 155.828 49.3504V56.1079H159.652C160.76 56.1079 161.559 55.9202 162.046 55.5448C162.556 55.1694 162.811 54.5621 162.811 53.7229C162.811 53.6788 162.877 53.6567 163.01 53.6567C163.144 53.6567 163.21 53.6788 163.21 53.7229L163.177 56.4723C163.177 57.1127 163.188 57.5985 163.21 57.9298L163.243 59.586C163.243 59.6302 163.177 59.6523 163.044 59.6523C162.911 59.6523 162.844 59.6302 162.844 59.586C162.844 58.6144 162.589 57.9187 162.079 57.4992C161.57 57.0575 160.738 56.8367 159.586 56.8367H155.828V64.4223C155.828 64.9964 155.895 65.4271 156.028 65.7141C156.161 66.0012 156.393 66.211 156.726 66.3435C157.058 66.4539 157.568 66.5091 158.256 66.5091H160.616C161.791 66.5091 162.767 66.1448 163.543 65.416C164.318 64.6652 164.85 63.6162 165.139 62.2691Z" fill="#47060E"/>
<path d="M38.3037 92.8636V85.1029H39.247V92.0299H42.8683V92.8636H38.3037Z" fill="#47060E"/>
<path d="M45.2724 85.1029V92.8636H44.329V85.1029H45.2724Z" fill="#47060E"/>
<path d="M47.1639 92.8636V85.1029H51.8351V85.9366H48.1073V88.5588H51.4851V89.3925H48.1073V92.8636H47.1639Z" fill="#47060E"/>
<path d="M53.0247 85.9366V85.1029H58.8675V85.9366H56.4178V92.8636H55.4744V85.9366H53.0247Z" fill="#47060E"/>
<path d="M68.4486 85.1029H69.3919V90.2413C69.3919 90.7718 69.2664 91.2455 69.0154 91.6623C68.7668 92.0766 68.4156 92.4038 67.9617 92.6438C67.5078 92.8813 66.9752 93 66.364 93C65.7529 93 65.2203 92.8813 64.7664 92.6438C64.3125 92.4038 63.96 92.0766 63.7089 91.6623C63.4604 91.2455 63.3361 90.7718 63.3361 90.2413V85.1029H64.2795V90.1655C64.2795 90.5445 64.3632 90.8817 64.5306 91.1773C64.6979 91.4704 64.9363 91.7015 65.2457 91.8708C65.5576 92.0375 65.9304 92.1209 66.364 92.1209C66.7977 92.1209 67.1705 92.0375 67.4824 91.8708C67.7943 91.7015 68.0327 91.4704 68.1975 91.1773C68.3649 90.8817 68.4486 90.5445 68.4486 90.1655V85.1029Z" fill="#47060E"/>
<path d="M71.2758 92.8636V85.1029H73.9081C74.5193 85.1029 75.0189 85.2128 75.4069 85.4326C75.7974 85.6498 76.0865 85.9442 76.2741 86.3155C76.4618 86.6869 76.5556 87.1012 76.5556 87.5584C76.5556 88.0157 76.4618 88.4313 76.2741 88.8052C76.089 89.179 75.8025 89.4771 75.4145 89.6994C75.0265 89.9192 74.5294 90.0291 73.9233 90.0291H72.0366V89.1954H73.8929C74.3113 89.1954 74.6473 89.1235 74.9009 88.9795C75.1545 88.8355 75.3384 88.6409 75.4525 88.3959C75.5692 88.1483 75.6275 87.8692 75.6275 87.5584C75.6275 87.2477 75.5692 86.9698 75.4525 86.7248C75.3384 86.4797 75.1533 86.2877 74.8971 86.1488C74.641 86.0073 74.3012 85.9366 73.8777 85.9366H72.2192V92.8636H71.2758Z" fill="#47060E"/>
<path d="M80.4185 85.1029H81.4988L83.6594 88.7256H83.7507L85.9113 85.1029H86.9916L84.1767 89.6653V92.8636H83.2334V89.6653L80.4185 85.1029Z" fill="#47060E"/>
<path d="M94.4187 88.9832C94.4187 89.8018 94.2704 90.5091 93.9737 91.1053C93.677 91.7015 93.27 92.1613 92.7526 92.4846C92.2353 92.808 91.6444 92.9697 90.98 92.9697C90.3156 92.9697 89.7247 92.808 89.2074 92.4846C88.6901 92.1613 88.2831 91.7015 87.9863 91.1053C87.6896 90.5091 87.5413 89.8018 87.5413 88.9832C87.5413 88.1647 87.6896 87.4574 87.9863 86.8612C88.2831 86.265 88.6901 85.8052 89.2074 85.4818C89.7247 85.1585 90.3156 84.9968 90.98 84.9968C91.6444 84.9968 92.2353 85.1585 92.7526 85.4818C93.27 85.8052 93.677 86.265 93.9737 86.8612C94.2704 87.4574 94.4187 88.1647 94.4187 88.9832ZM93.5058 88.9832C93.5058 88.3113 93.3929 87.7441 93.1672 87.2818C92.9441 86.8195 92.641 86.4696 92.2581 86.2321C91.8777 85.9947 91.4517 85.876 90.98 85.876C90.5083 85.876 90.081 85.9947 89.6981 86.2321C89.3177 86.4696 89.0147 86.8195 88.789 87.2818C88.5658 87.7441 88.4542 88.3113 88.4542 88.9832C88.4542 89.6552 88.5658 90.2224 88.789 90.6847C89.0147 91.147 89.3177 91.4969 89.6981 91.7343C90.081 91.9718 90.5083 92.0905 90.98 92.0905C91.4517 92.0905 91.8777 91.9718 92.2581 91.7343C92.641 91.4969 92.9441 91.147 93.1672 90.6847C93.3929 90.2224 93.5058 89.6552 93.5058 88.9832Z" fill="#47060E"/>
<path d="M101.117 85.1029H102.061V90.2413C102.061 90.7718 101.935 91.2455 101.684 91.6623C101.436 92.0766 101.084 92.4038 100.63 92.6438C100.177 92.8813 99.644 93 99.0329 93C98.4217 93 97.8892 92.8813 97.4352 92.6438C96.9813 92.4038 96.6288 92.0766 96.3777 91.6623C96.1292 91.2455 96.005 90.7718 96.005 90.2413V85.1029H96.9483V90.1655C96.9483 90.5445 97.032 90.8817 97.1994 91.1773C97.3668 91.4704 97.6051 91.7015 97.9145 91.8708C98.2264 92.0375 98.5992 92.1209 99.0329 92.1209C99.4665 92.1209 99.8393 92.0375 100.151 91.8708C100.463 91.7015 100.701 91.4704 100.866 91.1773C101.034 90.8817 101.117 90.5445 101.117 90.1655V85.1029Z" fill="#47060E"/>
<path d="M103.945 92.8636V85.1029H106.577C107.186 85.1029 107.685 85.2065 108.076 85.4136C108.466 85.6183 108.755 85.8999 108.943 86.2587C109.131 86.6174 109.224 87.0254 109.224 87.4826C109.224 87.9399 109.131 88.3454 108.943 88.699C108.755 89.0527 108.467 89.3306 108.079 89.5327C107.691 89.7323 107.196 89.8321 106.592 89.8321H104.462V88.9832H106.562C106.978 88.9832 107.312 88.9226 107.566 88.8014C107.822 88.6801 108.007 88.5083 108.121 88.286C108.238 88.0612 108.296 87.7934 108.296 87.4826C108.296 87.1719 108.238 86.9003 108.121 86.6679C108.005 86.4355 107.818 86.2561 107.562 86.1298C107.306 86.001 106.967 85.9366 106.546 85.9366H104.888V92.8636H103.945ZM107.612 89.3773L109.529 92.8636H108.433L106.546 89.3773H107.612Z" fill="#47060E"/>
<path d="M113.809 85.1029H114.935L117.583 91.5449H117.674L120.321 85.1029H121.447V92.8636H120.565V86.9673H120.489L118.054 92.8636H117.202L114.768 86.9673H114.692V92.8636H113.809V85.1029Z" fill="#47060E"/>
<path d="M129.912 88.9832C129.912 89.8018 129.764 90.5091 129.467 91.1053C129.17 91.7015 128.763 92.1613 128.246 92.4846C127.728 92.808 127.138 92.9697 126.473 92.9697C125.809 92.9697 125.218 92.808 124.701 92.4846C124.183 92.1613 123.776 91.7015 123.48 91.1053C123.183 90.5091 123.034 89.8018 123.034 88.9832C123.034 88.1647 123.183 87.4574 123.48 86.8612C123.776 86.265 124.183 85.8052 124.701 85.4818C125.218 85.1585 125.809 84.9968 126.473 84.9968C127.138 84.9968 127.728 85.1585 128.246 85.4818C128.763 85.8052 129.17 86.265 129.467 86.8612C129.764 87.4574 129.912 88.1647 129.912 88.9832ZM128.999 88.9832C128.999 88.3113 128.886 87.7441 128.66 87.2818C128.437 86.8195 128.134 86.4696 127.751 86.2321C127.371 85.9947 126.945 85.876 126.473 85.876C126.002 85.876 125.574 85.9947 125.191 86.2321C124.811 86.4696 124.508 86.8195 124.282 87.2818C124.059 87.7441 123.947 88.3113 123.947 88.9832C123.947 89.6552 124.059 90.2224 124.282 90.6847C124.508 91.147 124.811 91.4969 125.191 91.7343C125.574 91.9718 126.002 92.0905 126.473 92.0905C126.945 92.0905 127.371 91.9718 127.751 91.7343C128.134 91.4969 128.437 91.147 128.66 90.6847C128.886 90.2224 128.999 89.6552 128.999 88.9832Z" fill="#47060E"/>
<path d="M138.071 88.9832C138.071 89.8018 137.923 90.5091 137.626 91.1053C137.33 91.7015 136.923 92.1613 136.405 92.4846C135.888 92.808 135.297 92.9697 134.633 92.9697C133.968 92.9697 133.377 92.808 132.86 92.4846C132.343 92.1613 131.936 91.7015 131.639 91.1053C131.342 90.5091 131.194 89.8018 131.194 88.9832C131.194 88.1647 131.342 87.4574 131.639 86.8612C131.936 86.265 132.343 85.8052 132.86 85.4818C133.377 85.1585 133.968 84.9968 134.633 84.9968C135.297 84.9968 135.888 85.1585 136.405 85.4818C136.923 85.8052 137.33 86.265 137.626 86.8612C137.923 87.4574 138.071 88.1647 138.071 88.9832ZM137.158 88.9832C137.158 88.3113 137.045 87.7441 136.82 87.2818C136.597 86.8195 136.294 86.4696 135.911 86.2321C135.53 85.9947 135.104 85.876 134.633 85.876C134.161 85.876 133.734 85.9947 133.351 86.2321C132.97 86.4696 132.667 86.8195 132.442 87.2818C132.218 87.7441 132.107 88.3113 132.107 88.9832C132.107 89.6552 132.218 90.2224 132.442 90.6847C132.667 91.147 132.97 91.4969 133.351 91.7343C133.734 91.9718 134.161 92.0905 134.633 92.0905C135.104 92.0905 135.53 91.9718 135.911 91.7343C136.294 91.4969 136.597 91.147 136.82 90.6847C137.045 90.2224 137.158 89.6552 137.158 88.9832Z" fill="#47060E"/>
<path d="M142.062 92.8636H139.658V85.1029H142.168C142.924 85.1029 143.57 85.2583 144.108 85.569C144.646 85.8772 145.058 86.3206 145.344 86.8991C145.631 87.4751 145.774 88.1647 145.774 88.9681C145.774 89.7765 145.63 90.4725 145.341 91.056C145.051 91.6371 144.63 92.0842 144.078 92.3975C143.525 92.7082 142.853 92.8636 142.062 92.8636ZM140.601 92.0299H142.001C142.645 92.0299 143.179 91.9061 143.602 91.6586C144.026 91.411 144.341 91.0586 144.549 90.6013C144.757 90.1441 144.861 89.5997 144.861 88.9681C144.861 88.3416 144.759 87.8022 144.553 87.35C144.348 86.8953 144.041 86.5467 143.633 86.3042C143.224 86.0591 142.716 85.9366 142.107 85.9366H140.601V92.0299Z" fill="#47060E"/>
</svg>
